<?xml version="1.0" encoding="utf-8"?>
<!-- Generator: Adobe Illustrator 16.0.1, SVG Export Plug-In . SVG Version: 6.00 Build 0)  -->
<!DOCTYPE svg PUBLIC "-//W3C//DTD SVG 1.1//EN" "http://www.w3.org/Graphics/SVG/1.1/DTD/svg11.dtd">
<svg version="1.1" id="Ebene_1" xmlns="http://www.w3.org/2000/svg" xmlns:xlink="http://www.w3.org/1999/xlink" x="0px" y="0px"
	 width="1417.32px" height="1417.32px" viewBox="0 0 1417.32 1417.32" enable-background="new 0 0 1417.32 1417.32"
	 xml:space="preserve">
<g id="g2952_1_" transform="matrix(1,0,0,-1,0,841.88977)">
	<path id="path2954_1_" fill="#010202" stroke="#FFFFFF" stroke-width="6.5687" d="M711.561,690.858
		c-22.422-1.262-71.628,30.064-91.877,30.959c-49.951,2.213,14.468-103.115-428.469,67.383
		c-20.501-300.888-50.627-344.229-47.984-346.63c175.411-160.002,24.26-269.449-57.675-270.737
		c11.871-393.619,343.479-732.326,625.869-728.929"/>
</g>
<g id="g2944" transform="matrix(1,0,0,-1,0,841.88977)">
	<path id="path2946" fill="#010202" stroke="#010202" stroke-width="15.9232" d="M711.557,693.035
		c-22.422-1.25-71.619,30.066-91.879,30.968c-49.939,2.209,14.479-103.113-428.459,67.378
		c-20.499-300.892-50.626-344.22-47.991-346.634c175.419-159.993,24.267-269.438-57.668-270.726
		c11.873-393.616,343.47-732.325,625.863-728.931"/>
</g>
<g id="g2948" transform="matrix(1,0,0,-1,0,841.88977)">
	<path id="path2950" fill="#76160E" stroke="#010202" stroke-width="15.9232" d="M710.699,693.035
		c24.875-0.739,72.119,30.066,91.877,30.968c49.938,2.26-14.053-103.113,428.885,67.378
		c20.502-300.892,50.621-344.22,47.988-346.634c-175.412-159.993-24.264-269.438,57.672-270.726
		c-11.879-393.616-343.479-732.325-625.867-728.931"/>
</g>
<g id="g2952" transform="matrix(1,0,0,-1,0,841.88977)">
	<path id="path2954" fill="#010202" stroke="#FFFFFF" stroke-width="6.5687" d="M711.67,690.876
		c-22.418-1.261-71.625,30.064-91.875,30.959c-49.95,2.214,14.469-103.115-428.468,67.383
		c-20.501-300.889-50.627-344.229-47.984-346.63c175.411-160.002,24.26-269.449-57.675-270.736
		c11.871-393.618,343.479-732.327,625.871-728.93"/>
</g>
<g id="g2958" transform="matrix(1,0,0,-1,0,841.88977)">
	<path id="path2960" fill="#BC1818" stroke="#FFFFFF" stroke-width="6.5687" d="M711.143,690.82
		c22.422-1.26,71.621,30.059,91.881,30.959c49.947,2.206-14.471-103.112,428.465,67.375c20.502-300.89,50.621-344.22,47.984-346.632
		c-175.422-159.992-24.26-269.44,57.678-270.724c-11.881-393.62-343.562-732.245-625.951-728.853"/>
</g>
<g id="g2975" transform="translate(0,-24)">
	<path id="path2956" fill="#BC1818" d="M538.164,692.796c-22.162-38.15-61.981-99.833-21.133-162.529
		c-47.814-109.071-14.258-85.428-31.791-97.872c-34.334-6.976-84.214-21.152-68.33-122.148
		c1.795-11.405,68.832,46.905,106.354,34.882c34.193-10.951,94.871-27.591,121.774-25.394c18.338,1.5,12.121,8.779,18.48,10.746
		c16.363,5.046,35.695-5.844,47.599-4.227c1.762-0.168-0.41,706.709,0.064,706.012c-8.932-2.555-13.766-6.109-32.023-5.385
		c-28.986,1.145-81.695-40.693-93.129-66.34c-9.671-21.67-26.5-24.92-42.917-88.639c23.963-22.748-3.655-166.761-12.791-186.95l0,0
		l0,0l0,0L538.164,692.796L538.164,692.796z"/>
	<path id="path2962" fill="#010202" d="M512.197,584.414l1.172,10.021c19.801,0.956,39.604,1.903,59.408,2.858
		C553.992,589.55,534.091,584.537,512.197,584.414L512.197,584.414z"/>
	<path id="path2964" fill="#010202" d="M519.192,623.053l1.161,10.023l43.105-15.749L519.192,623.053z"/>
	<path id="path2966" fill="#BC1818" d="M351.302,561.994c6.93-13.266,137.494-24.733,139.343-13.354l-4.655,18.605
		C432.693,558.518,392.462,548.498,351.302,561.994z"/>
	<path id="path2968" fill="#BC1818" d="M342.333,624.473c74.862-61.454,144.799-46.215,144.686-47.214l1.158,24.33
		C423.573,595.417,398.999,605.262,342.333,624.473z"/>
	<path id="path2970" fill="#BC1818" d="M378.117,685.598c5.26-23.689,79.157-82.687,110.786-74.708l4.073,20.758
		C428.11,639.792,434.06,639.079,378.117,685.598L378.117,685.598z"/>
	<path id="path2972" fill="#BC1818" d="M432.548,719.049c8.157-40.08,64.508-77.388,64.508-77.388l7.576,15.748
		C469.109,671.967,462.607,679.335,432.548,719.049L432.548,719.049z"/>
	<path id="path2974" fill="#BC1818" d="M364.254,506.417c71.054-15.739,136.368,17.509,136.368,17.509l-5.896,16.837
		C453.469,518.323,408.431,514.493,364.254,506.417L364.254,506.417L364.254,506.417z"/>
	<path id="path2976" fill="#010202" d="M517.44,547.201l-3.491,14.32c19.088,5.172,40.756,12.889,62.909,14.309
		C557.733,572.266,539.665,558.395,517.44,547.201L517.44,547.201z"/>
	<path id="path2978" fill="#010202" d="M585.172,662.268c43.6-18.001,105.382-17.936,109.501-80.14
		C714.969,616.24,715.029,643.483,585.172,662.268z"/>
	<path id="path2980" fill="#010202" d="M672.772,750.107c10.764-2.916,14.042-2.287,38.363,1.865l-0.043,158.291
		c-26.541,11.994-82.268-10.443-66.697-41.986C660.758,830.961,677.864,774.982,672.772,750.107L672.772,750.107L672.772,750.107z"
		/>
	<path id="path2982" fill="#010202" d="M608.862,524.765c-4.957-8.557,0.85-13.81,8.154-18.606
		c8.531-2.439,16.461-7.057,27.959,1.429l-3.494-12.882c10.381-3.055,19.777-7.914,36.113,0l-1.169-7.154
		c13.694-17.291,24.288-15.603,34.954-14.31v78.71c-12.73,21.511-43.573-5.929-71.066-24.33
		C633.879,521.692,621.35,523.255,608.862,524.765L608.862,524.765L608.862,524.765z"/>
	<path id="path2984" fill="#010202" d="M616.937,533.536c8.726,17.034,15.415,27.976,45.428,25.759"/>
	<path id="path2986" fill="#FFFFFF" d="M634.649,718.208c-8.824,38.357-2.395,59.125-0.33,97.47
		c-30.736-17.104-43.169-49.729-51.092-91.735l11.353-6.218l13.122,25.333l6.502-30.264l28.941-9.7"/>
	<path id="path2988" fill="#FFFFFF" d="M632.262,953.062c-15.631-7.73-27.383-32.566-21.793-75.199
		c8.351,19.232,20.134,45.734,43.081,51.879l-7.095,17.107c-4.966,2.033-16.094,3.242-21.292-23.324
		C624.635,939.711,626.12,951.494,632.262,953.062z"/>
	<path id="path2990" fill="#FFFFFF" d="M711.289,951.127v8.789c-13.076,3.387-18.25,0.564-22.074-3.299
		c-9.636-0.043-19.98,2.596-27.099-7.146c0.491-11.92,8.174-22.223,16.561-26.934c1.099,9.422,4.938,18.773,10.041,20.891
		c1.785-6.824,4.4-10.023,7.52-10.994C698.477,940.684,701.178,948.615,711.289,951.127L711.289,951.127z"/>
	<path id="path2992" fill="#FFFFFF" d="M672.049,705.392c-2.834,10.897-6.289,15.692-5.619,26.59
		c-9.881-4.859-13.746-18.39-16.292-30.315l6.538-1.913l5.215,6.102l2.592-7.494l11.862-2.842"/>
	<path id="path2994" fill="#FFFFFF" d="M689.852,698.469c-1.994,6.458-4.424,9.298-3.961,15.755
		c-6.928-2.876-9.039-11.307-10.823-18.383l5.038-0.722l2.607,3.618l1.813-4.45l8.344-1.68"/>
	<path id="path2996" fill="#FFFFFF" d="M711.135,696.834c-5.502,2.053-9.689,7.653-9.219,14.113
		c-6.938-2.885-9.045-11.311-10.834-18.382l5.039-0.726l2.609,3.618l1.818-4.446l10.473-0.447"/>
	<path id="path3002" fill="#010202" d="M1071.256,562.529c-6.936-13.256-137.494-24.732-139.346-13.354l4.656,18.606
		C989.865,559.065,1030.098,549.034,1071.256,562.529L1071.256,562.529z"/>
	<path id="path3004" fill="#010202" d="M1080.225,625.011c-74.863-61.446-144.803-46.207-144.688-47.207l-1.162,24.322
		C998.984,595.961,1023.555,605.805,1080.225,625.011L1080.225,625.011z"/>
	<path id="path3006" fill="#010202" d="M1044.438,686.143c-5.258-23.697-79.152-82.685-110.783-74.71l-4.074,20.749
		C994.447,640.338,988.498,639.622,1044.438,686.143L1044.438,686.143z"/>
	<path id="path3008" fill="#010202" d="M990.006,719.585c-8.154-40.072-64.51-77.382-64.51-77.382l-7.57,15.741
		c35.523,14.566,42.023,21.928,72.08,61.639l0,0V719.585z"/>
	<path id="path3010" fill="#010202" d="M1058.305,506.963c-71.057-15.748-136.371,17.506-136.371,17.506l5.896,16.837
		C969.09,518.86,1014.123,515.029,1058.305,506.963L1058.305,506.963z"/>
	<path id="path3026" fill="#F6A01E" d="M543.54,416.862l27.941,12.192l13.648,24.995l31.816-7.863l36.174,7.629l-75.352,17.866
		L543.54,416.862L543.54,416.862L543.54,416.862z"/>
	<path id="path3028" fill="#FFFFFF" d="M577.698,430.896l10.514,15.336l20.669-2.76L577.698,430.896L577.698,430.896z"/>
	<path id="path3030" fill="#010202" d="M884.85,693.055c22.16-38.139,61.982-99.827,21.133-162.52
		c47.822-109.08,14.256-85.436,31.791-97.88c34.344-6.974,84.213-21.143,68.328-122.139c-1.793-11.415-68.82,46.905-106.354,34.881
		c-34.193-10.951-94.859-27.599-121.771-25.393c-18.332,1.492-12.123,8.78-18.482,10.745c-16.363,5.047-35.686-5.843-47.59-4.227
		c-1.77-0.167,0.402,706.711-0.062,706.014c8.93-2.555,13.756-6.109,32.014-5.385c28.982,1.143,81.693-40.695,93.135-66.342
		c9.664-21.67,26.492-24.92,42.91-88.637c-23.963-22.75,3.654-166.762,12.791-186.949l0,0l0,0l0,0L884.85,693.055z"/>
	<path id="path3032" fill="#F6A01E" d="M877.496,416.862l-27.938,12.192l-13.648,24.995l-31.816-7.863l-36.178,7.629l75.355,17.866
		L877.496,416.862L877.496,416.862z"/>
	<path id="path3034" fill="#FFFFFF" d="M843.342,430.896l-10.514,15.336l-20.67-2.76L843.342,430.896L843.342,430.896z"/>
	<path id="path3038" fill="#BC1818" d="M813.445,525.81c4.947-8.557-0.852-13.809-8.158-18.605
		c-8.527-2.439-16.467-7.057-27.953,1.429l3.49-12.882c-10.379-3.055-19.775-7.914-36.111,0l1.162-7.155
		c-13.688-17.291-24.289-15.603-34.943-14.309v78.71c12.727,21.511,43.561-5.929,71.055-24.329
		C788.416,522.738,800.949,524.301,813.445,525.81L813.445,525.81L813.445,525.81z"/>
	<path id="path3040" fill="#BC1818" d="M805.619,534.072c-8.729,17.032-15.416,27.982-45.436,25.761"/>
	<path id="path3042" fill="#FFFFFF" d="M789.963,953.652c15.633-7.736,27.387-32.562,21.785-75.199
		c-8.354,19.232-20.135,45.734-43.078,51.879l7.1,17.104c4.959,2.035,16.096,3.236,21.287-23.32
		C797.582,940.301,796.098,952.074,789.963,953.652L789.963,953.652L789.963,953.652z"/>
	<path id="path3044" fill="#FFFFFF" d="M711.027,951.162v8.789c13.084,3.389,18.252,0.572,22.082-3.293
		c9.639-0.047,19.982,2.59,27.088-7.146c-0.482-11.928-8.17-22.223-16.549-26.943c-1.098,9.424-4.938,18.785-10.039,20.895
		c-1.787-6.824-4.402-10.021-7.529-10.994C723.838,940.73,721.146,948.654,711.027,951.162L711.027,951.162L711.027,951.162z"/>
	<path id="path3046" fill="#BC1818" d="M749.465,750.09c-10.766-2.916-14.035-2.297-38.354,1.865l0.031,158.279
		c26.539,11.994,82.27-10.432,66.709-41.982C761.477,830.939,744.373,774.965,749.465,750.09L749.465,750.09L749.465,750.09z"/>
	<path id="path3048" fill="#FFFFFF" d="M787.57,718.797c8.824,38.357,2.393,59.115,0.328,97.468
		c30.734-17.104,43.178-49.727,51.092-91.733l-11.35-6.227l-13.125,25.342l-6.502-30.273l-28.934-9.69"/>
	<path id="path3050" fill="#FFFFFF" d="M749.662,705.336c2.828,10.897,6.287,15.695,5.615,26.592
		c9.879-4.859,13.748-18.392,16.285-30.323l-6.531-1.903l-5.215,6.101l-2.592-7.496l-11.861-2.838"/>
	<path id="path3052" fill="#FFFFFF" d="M710.57,696.779c5.506,2.057,9.686,7.656,9.223,14.113
		c6.938-2.886,9.039-11.307,10.826-18.382l-5.031-0.722l-2.609,3.618l-1.822-4.45l-10.467-0.447"/>
	<path id="path3054" fill="#FFFFFF" d="M731.857,698.405c1.994,6.467,4.42,9.309,3.949,15.767
		c6.941-2.876,9.045-11.311,10.836-18.382l-5.037-0.725l-2.609,3.617l-1.822-4.448l-8.336-1.677"/>
	<path id="path2998" fill="#BC1818" d="M910.359,584.959l-1.17,10.013c-19.803,0.956-39.607,1.912-59.408,2.868
		C868.562,590.095,888.465,585.083,910.359,584.959L910.359,584.959z"/>
	<path id="path3000" fill="#BC1818" d="M903.367,623.598l-1.162,10.013l-43.109-15.738L903.367,623.598L903.367,623.598
		L903.367,623.598z"/>
	<path id="path3012" fill="#BC1818" d="M905.113,547.746l3.494,14.309c-19.09,5.174-40.754,12.9-62.91,14.312
		C864.822,572.802,882.895,558.939,905.113,547.746L905.113,547.746L905.113,547.746z"/>
	<path id="path3036" fill="#BC1818" d="M837.383,662.812c-43.596-17.998-105.381-17.938-109.498-80.15
		C707.59,616.773,707.527,644.027,837.383,662.812z"/>
</g>
<path id="path2897" fill="#BC1818" d="M31.753,10.039"/>
<path id="path3673" fill="#BC1818" d="M31.753,10.039"/>
<path id="path3675" fill="#BC1818" d="M31.753,10.039"/>
<text transform="matrix(1 0 0 1 297.7026 1145.2227)" fill="#FFFFFF" font-family="'DiavloBold-Regular'" font-size="164.6382">Bottwartal</text>
<text transform="matrix(1 0 0 1 290.7222 995.0449)" fill="#FFFFFF" font-family="'DiavloBold-Regular'" font-size="329.2765">S</text>
<text transform="matrix(1 0 0 1 912.0742 994.4082)" fill="#FFFFFF" font-family="'DiavloBold-Regular'" font-size="329.2765">G</text>
</svg>
