<?xml version="1.0" encoding="UTF-8"?>
<!DOCTYPE svg PUBLIC "-//W3C//DTD SVG 1.1//EN" "http://www.w3.org/Graphics/SVG/1.1/DTD/svg11.dtd">
<svg version="1.1" xmlns="http://www.w3.org/2000/svg" xmlns:xlink="http://www.w3.org/1999/xlink" x="0px" y="0px" width="1024" height="1024" viewBox="0, 0, 1024, 1024">
  <g id="Layer 2">
    <path d="M-97.063,-23.531 L521.992,-23.531 L521.992,1057.672 L-97.063,1057.672 z" fill="#000000"/>
  </g>
  <g id="Layer 3">
    <path d="M521.612,-20.078 L1044.604,-20.078 L1044.604,1064.609 L521.612,1064.609 z" fill="#BC1818"/>
  </g>
  <g id="Layer 1">
    <path d="M346.731,534.529 C324.569,496.379 284.75,434.697 325.598,372 C277.784,262.93 311.34,286.573 293.807,274.129 C259.473,267.152 209.593,252.977 225.477,151.98 C227.272,140.576 294.309,198.885 331.831,186.863 C366.024,175.911 426.702,159.271 453.605,161.469 C471.943,162.969 465.726,170.247 472.085,172.215 C488.448,177.26 507.78,166.37 519.684,167.988 C521.446,167.82 519.274,874.696 519.748,873.999 C510.816,871.444 505.982,867.89 487.725,868.614 C458.739,869.759 406.03,827.921 394.596,802.274 C384.925,780.604 368.096,777.354 351.679,713.635 C375.642,690.887 348.024,546.875 338.888,526.685 L338.888,526.685 L338.888,526.685 L338.888,526.685 L346.731,534.529 L346.731,534.529 z" fill="#BC1818"/>
    <path d="M320.764,426.147 L321.936,436.168 C341.737,437.124 361.54,438.071 381.344,439.026 C362.559,431.283 342.658,426.27 320.764,426.147 L320.764,426.147 z" fill="#010202"/>
    <path d="M327.759,464.786 L328.92,474.809 L372.025,459.06 L327.759,464.786 z" fill="#010202"/>
    <path d="M159.869,403.727 C166.799,390.461 297.363,378.994 299.212,390.373 L294.557,408.978 C241.26,400.251 201.029,390.231 159.869,403.727 z" fill="#BC1818"/>
    <path d="M150.9,466.206 C225.762,404.753 295.699,419.991 295.586,418.992 L296.744,443.322 C232.14,437.15 207.566,446.995 150.9,466.206 z" fill="#BC1818"/>
    <path d="M186.684,527.331 C191.944,503.642 265.841,444.645 297.47,452.624 L301.543,473.382 C236.677,481.525 242.627,480.812 186.684,527.331 L186.684,527.331 z" fill="#BC1818"/>
    <path d="M241.115,560.782 C249.272,520.702 305.623,483.394 305.623,483.394 L313.199,499.142 C277.676,513.7 271.174,521.068 241.115,560.782 L241.115,560.782 z" fill="#BC1818"/>
    <path d="M172.821,348.151 C243.875,332.411 309.189,365.66 309.189,365.66 L303.293,382.497 C262.036,360.057 216.998,356.227 172.821,348.151 L172.821,348.151 L172.821,348.151 z" fill="#BC1818"/>
    <path d="M326.007,388.934 L322.516,403.254 C341.604,408.426 363.272,416.143 385.425,417.563 C366.3,413.999 348.232,400.128 326.007,388.934 L326.007,388.934 z" fill="#010202"/>
    <path d="M393.739,504.001 C437.339,486 499.121,486.065 503.24,423.861 C523.536,457.973 523.596,485.216 393.739,504.001 z" fill="#010202"/>
    <path d="M481.339,591.841 C492.103,588.924 495.381,589.553 519.702,593.706 L519.659,751.996 C493.118,763.99 437.391,741.553 452.962,710.01 C469.325,672.695 486.431,616.716 481.339,591.841 L481.339,591.841 L481.339,591.841 z" fill="#010202"/>
    <path d="M417.429,366.499 C412.472,357.941 418.279,352.689 425.583,347.892 C434.114,345.453 442.044,340.836 453.542,349.322 L450.048,336.44 C460.429,333.384 469.825,328.526 486.161,336.44 L484.992,329.285 C498.686,311.995 509.28,313.682 519.946,314.975 L519.946,393.685 C507.216,415.197 476.373,387.757 448.88,369.355 C442.446,363.426 429.917,364.988 417.429,366.499 L417.429,366.499 L417.429,366.499 z" fill="#010202"/>
    <path d="M425.504,375.269 C434.23,392.303 440.919,403.245 470.932,401.028" fill="#010202"/>
    <path d="M443.216,559.941 C434.392,598.298 440.821,619.066 442.886,657.411 C412.15,640.307 399.717,607.682 391.794,565.676 L403.147,559.458 L416.269,584.791 L422.771,554.527 L451.712,544.827" fill="#FFFFFF"/>
    <path d="M440.829,794.795 C425.198,787.065 413.446,762.229 419.036,719.596 C427.387,738.828 439.17,765.331 462.117,771.475 L455.022,788.582 C450.056,790.615 438.928,791.824 433.73,765.258 C433.202,781.444 434.687,793.227 440.829,794.795 z" fill="#FFFFFF"/>
    <path d="M519.856,792.86 L519.856,801.649 C506.78,805.036 501.606,802.213 497.782,798.35 C488.146,798.307 477.802,800.946 470.683,791.204 C471.174,779.284 478.857,768.981 487.244,764.27 C488.343,773.692 492.182,783.043 497.285,785.161 C499.07,778.337 501.685,775.138 504.805,774.167 C507.044,782.417 509.745,790.348 519.856,792.86 L519.856,792.86 z" fill="#FFFFFF"/>
    <path d="M480.616,547.125 C477.782,558.022 474.327,562.817 474.997,573.715 C465.116,568.856 461.251,555.326 458.705,543.4 L465.243,541.487 L470.458,547.589 L473.05,540.095 L484.912,537.253" fill="#FFFFFF"/>
    <path d="M498.419,540.202 C496.425,546.66 493.995,549.5 494.458,555.957 C487.53,553.081 485.419,544.65 483.635,537.574 L488.673,536.852 L491.28,540.47 L493.093,536.02 L501.437,534.34" fill="#FFFFFF"/>
    <path d="M519.702,538.567 C514.2,540.62 510.013,546.22 510.483,552.68 C503.545,549.795 501.438,541.369 499.649,534.298 L504.688,533.572 L507.297,537.19 L509.115,532.744 L519.588,532.297" fill="#FFFFFF"/>
    <path d="M879.823,404.263 C872.887,391.007 742.329,379.531 740.477,390.909 L745.133,409.515 C798.432,400.799 838.665,390.768 879.823,404.263 L879.823,404.263 z" fill="#010202"/>
    <path d="M888.792,466.745 C813.929,405.298 743.989,420.538 744.104,419.538 L742.942,443.859 C807.551,437.694 832.122,447.538 888.792,466.745 L888.792,466.745 z" fill="#010202"/>
    <path d="M853.005,527.876 C847.747,504.179 773.853,445.191 742.222,453.166 L738.148,473.915 C803.014,482.071 797.065,481.355 853.005,527.876 L853.005,527.876 z" fill="#010202"/>
    <path d="M798.573,561.318 C790.419,521.246 734.063,483.936 734.063,483.936 L726.493,499.677 C762.016,514.243 768.516,521.605 798.573,561.316 L798.573,561.316 L798.573,561.318 z" fill="#010202"/>
    <path d="M866.872,348.697 C795.815,332.948 730.501,366.203 730.501,366.203 L736.397,383.039 C777.657,360.594 822.69,356.763 866.872,348.697 L866.872,348.697 z" fill="#010202"/>
    <path d="M352.107,258.595 L380.048,270.788 L393.696,295.783 L425.512,287.919 L461.686,295.548 L386.334,313.414 L352.107,258.595 L352.107,258.595 L352.107,258.595 z" fill="#F6A01E"/>
    <path d="M386.265,272.63 L396.779,287.966 L417.448,285.206 L386.265,272.63 L386.265,272.63 z" fill="#FFFFFF"/>
    <path d="M693.417,534.788 C715.577,496.649 755.399,434.961 714.55,372.268 C762.372,263.188 728.806,286.832 746.341,274.388 C780.685,267.414 830.554,253.245 814.669,152.249 C812.876,140.834 745.849,199.154 708.315,187.13 C674.122,176.179 613.456,159.531 586.544,161.737 C568.212,163.229 574.421,170.517 568.062,172.482 C551.699,177.529 532.376,166.639 520.472,168.255 C518.702,168.088 520.874,874.966 520.41,874.269 C529.34,871.714 534.166,868.16 552.424,868.884 C581.406,870.027 634.117,828.189 645.559,802.542 C655.223,780.872 672.051,777.622 688.469,713.905 C664.506,691.155 692.123,547.143 701.26,526.956 L701.26,526.956 L701.26,526.956 L701.26,526.956 L693.417,534.788 z" fill="#010202"/>
    <path d="M686.063,258.595 L658.125,270.788 L644.477,295.783 L612.661,287.919 L576.483,295.548 L651.838,313.414 L686.063,258.595 L686.063,258.595 z" fill="#F6A01E"/>
    <path d="M651.909,272.63 L641.395,287.966 L620.725,285.206 L651.909,272.63 L651.909,272.63 z" fill="#FFFFFF"/>
    <path d="M622.012,367.543 C626.959,358.987 621.16,353.734 613.854,348.939 C605.327,346.5 597.387,341.882 585.901,350.367 L589.391,337.486 C579.012,334.431 569.616,329.572 553.28,337.486 L554.442,330.331 C540.754,313.039 530.153,314.728 519.499,316.021 L519.499,394.732 C532.226,416.242 563.06,388.802 590.554,370.402 C596.983,364.471 609.516,366.034 622.012,367.543 L622.012,367.543 L622.012,367.543 z" fill="#BC1818"/>
    <path d="M614.186,375.805 C605.457,392.837 598.77,403.787 568.75,401.566" fill="#BC1818"/>
    <path d="M598.53,795.385 C614.163,787.649 625.917,762.823 620.315,720.186 C611.961,739.418 600.18,765.92 577.237,772.065 L584.337,789.169 C589.296,791.204 600.433,792.405 605.624,765.849 C606.149,782.034 604.665,793.807 598.53,795.385 L598.53,795.385 L598.53,795.385 z" fill="#FFFFFF"/>
    <path d="M519.594,792.895 L519.594,801.684 C532.678,805.073 537.846,802.256 541.676,798.391 C551.315,798.344 561.658,800.981 568.764,791.245 C568.282,779.317 560.594,769.022 552.215,764.302 C551.117,773.726 547.277,783.087 542.176,785.197 C540.389,778.373 537.774,775.176 534.647,774.203 C532.405,782.463 529.713,790.387 519.594,792.895 L519.594,792.895 L519.594,792.895 z" fill="#FFFFFF"/>
    <path d="M558.032,591.823 C547.266,588.908 543.997,589.526 519.678,593.688 L519.709,751.967 C546.248,763.961 601.979,741.536 586.418,709.985 C570.044,672.672 552.94,616.698 558.032,591.823 L558.032,591.823 L558.032,591.823 z" fill="#BC1818"/>
    <path d="M596.137,560.53 C604.961,598.887 598.53,619.645 596.465,657.998 C627.199,640.894 639.643,608.271 647.557,566.265 L636.207,560.038 L623.082,585.38 L616.58,555.107 L587.646,545.417" fill="#FFFFFF"/>
    <path d="M558.229,547.069 C561.057,557.966 564.516,562.764 563.844,573.661 C573.723,568.802 577.592,555.269 580.129,543.338 L573.598,541.435 L568.383,547.536 L565.791,540.04 L553.93,537.202" fill="#FFFFFF"/>
    <path d="M519.137,538.513 C524.643,540.57 528.823,546.169 528.36,552.625 C535.298,549.74 537.399,541.318 539.186,534.244 L534.155,533.521 L531.546,537.14 L529.724,532.69 L519.257,532.242" fill="#FFFFFF"/>
    <path d="M540.424,540.138 C542.418,546.605 544.844,549.448 544.373,555.906 C551.314,553.029 553.418,544.594 555.209,537.523 L550.172,536.799 L547.563,540.415 L545.741,535.967 L537.405,534.29" fill="#FFFFFF"/>
    <path d="M718.926,426.693 L717.756,436.706 C697.953,437.661 678.149,438.618 658.348,439.574 C677.129,431.829 697.032,426.816 718.926,426.693 L718.926,426.693 z" fill="#BC1818"/>
    <path d="M711.934,465.332 L710.772,475.345 L667.663,459.607 L711.934,465.332 L711.934,465.332 L711.934,465.332 z" fill="#BC1818"/>
    <path d="M713.68,389.479 L717.174,403.789 C698.084,408.962 676.42,416.689 654.264,418.1 C673.389,414.535 691.462,400.672 713.68,389.479 L713.68,389.479 L713.68,389.479 z" fill="#BC1818"/>
    <path d="M645.95,504.545 C602.354,486.547 540.569,486.607 536.452,424.395 C516.157,458.506 516.094,485.76 645.95,504.545 z" fill="#BC1818"/>
    <text transform="matrix(1, 0, 0, 1, 524.43, 949)"/>
  </g>
  <defs/>
</svg>
