<?xml version="1.0" encoding="UTF-8"?>
<!DOCTYPE svg PUBLIC "-//W3C//DTD SVG 1.1//EN" "http://www.w3.org/Graphics/SVG/1.1/DTD/svg11.dtd">
<svg version="1.1" xmlns="http://www.w3.org/2000/svg" xmlns:xlink="http://www.w3.org/1999/xlink" x="0px" y="0px" width="1417.32" height="1417.32" viewBox="0, 0, 1417.32, 1417.32">
  <g id="g2952_1_">
    <g>
      <path d="M711.561,151.032 C689.139,152.294 639.933,120.968 619.684,120.073 C569.733,117.86 634.152,223.188 191.215,52.69 C170.714,353.578 140.588,396.919 143.231,399.32 C318.642,559.322 167.491,668.769 85.556,670.057 C97.427,1063.676 429.035,1402.383 711.425,1398.986" fill="#010202"/>
      <path d="M711.561,151.032 C689.139,152.294 639.933,120.968 619.684,120.073 C569.733,117.86 634.152,223.188 191.215,52.69 C170.714,353.578 140.588,396.919 143.231,399.32 C318.642,559.322 167.491,668.769 85.556,670.057 C97.427,1063.676 429.035,1402.383 711.425,1398.986" fill-opacity="0" stroke="#FFFFFF" stroke-width="6.569"/>
    </g>
  </g>
  <g id="g2944">
    <g>
      <path d="M711.557,148.855 C689.135,150.105 639.938,118.789 619.678,117.887 C569.739,115.678 634.157,221 191.219,50.509 C170.72,351.401 140.593,394.729 143.228,397.143 C318.647,557.136 167.495,666.581 85.56,667.869 C97.433,1061.485 429.03,1400.194 711.423,1396.8" fill="#010202"/>
      <path d="M711.557,148.855 C689.135,150.105 639.938,118.789 619.678,117.887 C569.739,115.678 634.157,221 191.219,50.509 C170.72,351.401 140.593,394.729 143.228,397.143 C318.647,557.136 167.495,666.581 85.56,667.869 C97.433,1061.485 429.03,1400.194 711.423,1396.8" fill-opacity="0" stroke="#010202" stroke-width="15.923"/>
    </g>
  </g>
  <g id="g2948">
    <g>
      <path d="M710.699,148.855 C735.574,149.594 782.818,118.789 802.576,117.887 C852.514,115.627 788.523,221 1231.461,50.509 C1251.963,351.401 1282.082,394.729 1279.449,397.143 C1104.037,557.136 1255.185,666.581 1337.121,667.869 C1325.242,1061.485 993.642,1400.194 711.254,1396.8" fill="#76160E"/>
      <path d="M710.699,148.855 C735.574,149.594 782.818,118.789 802.576,117.887 C852.514,115.627 788.523,221 1231.461,50.509 C1251.963,351.401 1282.082,394.729 1279.449,397.143 C1104.037,557.136 1255.185,666.581 1337.121,667.869 C1325.242,1061.485 993.642,1400.194 711.254,1396.8" fill-opacity="0" stroke="#010202" stroke-width="15.923"/>
    </g>
  </g>
  <g id="g2952">
    <g>
      <path d="M711.67,151.014 C689.252,152.275 640.045,120.95 619.795,120.055 C569.845,117.841 634.264,223.17 191.327,52.672 C170.826,353.561 140.7,396.901 143.343,399.302 C318.754,559.304 167.603,668.751 85.668,670.038 C97.539,1063.656 429.147,1402.365 711.539,1398.968" fill="#010202"/>
      <path d="M711.67,151.014 C689.252,152.275 640.045,120.95 619.795,120.055 C569.845,117.841 634.264,223.17 191.327,52.672 C170.826,353.561 140.7,396.901 143.343,399.302 C318.754,559.304 167.603,668.751 85.668,670.038 C97.539,1063.656 429.147,1402.365 711.539,1398.968" fill-opacity="0" stroke="#FFFFFF" stroke-width="6.569"/>
    </g>
  </g>
  <g id="g2958">
    <g>
      <path d="M711.143,151.07 C733.565,152.33 782.764,121.011 803.024,120.111 C852.971,117.905 788.553,223.223 1231.489,52.736 C1251.991,353.626 1282.11,396.956 1279.473,399.368 C1104.051,559.36 1255.213,668.808 1337.151,670.092 C1325.27,1063.712 993.589,1402.337 711.2,1398.945" fill="#BC1818"/>
      <path d="M711.143,151.07 C733.565,152.33 782.764,121.011 803.024,120.111 C852.971,117.905 788.553,223.223 1231.489,52.736 C1251.991,353.626 1282.11,396.956 1279.473,399.368 C1104.051,559.36 1255.213,668.808 1337.151,670.092 C1325.27,1063.712 993.589,1402.337 711.2,1398.945" fill-opacity="0" stroke="#FFFFFF" stroke-width="6.569"/>
    </g>
  </g>
  <g id="g2975">
    <path d="M538.164,668.796 C516.002,630.646 476.183,568.963 517.031,506.267 C469.217,397.196 502.773,420.839 485.24,408.395 C450.906,401.419 401.026,387.243 416.91,286.247 C418.705,274.842 485.742,333.152 523.264,321.129 C557.457,310.178 618.135,293.538 645.038,295.735 C663.376,297.235 657.159,304.514 663.518,306.481 C679.881,311.527 699.213,300.637 711.117,302.254 C712.879,302.086 710.707,1008.963 711.181,1008.266 C702.249,1005.711 697.415,1002.157 679.158,1002.881 C650.172,1004.026 597.463,962.188 586.029,936.541 C576.358,914.871 559.529,911.621 543.112,847.902 C567.075,825.154 539.457,681.141 530.321,660.952 L530.321,660.952 L530.321,660.952 L530.321,660.952 L538.164,668.796 L538.164,668.796 z" fill="#BC1818"/>
    <path d="M512.197,560.414 L513.369,570.435 C533.17,571.391 552.973,572.338 572.777,573.293 C553.992,565.55 534.091,560.537 512.197,560.414 L512.197,560.414 z" fill="#010202"/>
    <path d="M519.192,599.053 L520.353,609.076 L563.458,593.327 L519.192,599.053 z" fill="#010202"/>
    <path d="M351.302,537.994 C358.232,524.728 488.796,513.261 490.645,524.64 L485.99,543.245 C432.693,534.518 392.462,524.498 351.302,537.994 z" fill="#BC1818"/>
    <path d="M342.333,600.473 C417.195,539.019 487.132,554.258 487.019,553.259 L488.177,577.589 C423.573,571.417 398.999,581.262 342.333,600.473 z" fill="#BC1818"/>
    <path d="M378.117,661.598 C383.377,637.909 457.274,578.911 488.903,586.89 L492.976,607.648 C428.11,615.792 434.06,615.079 378.117,661.598 L378.117,661.598 z" fill="#BC1818"/>
    <path d="M432.548,695.049 C440.705,654.969 497.056,617.661 497.056,617.661 L504.632,633.409 C469.109,647.967 462.607,655.335 432.548,695.049 L432.548,695.049 z" fill="#BC1818"/>
    <path d="M364.254,482.417 C435.308,466.678 500.622,499.926 500.622,499.926 L494.726,516.763 C453.469,494.323 408.431,490.493 364.254,482.417 L364.254,482.417 L364.254,482.417 z" fill="#BC1818"/>
    <path d="M517.44,523.201 L513.949,537.521 C533.037,542.693 554.705,550.41 576.858,551.83 C557.733,548.266 539.665,534.395 517.44,523.201 L517.44,523.201 z" fill="#010202"/>
    <path d="M585.172,638.268 C628.772,620.267 690.554,620.332 694.673,558.128 C714.969,592.24 715.029,619.483 585.172,638.268 z" fill="#010202"/>
    <path d="M672.772,726.107 C683.536,723.191 686.814,723.82 711.135,727.972 L711.092,886.263 C684.551,898.257 628.824,875.82 644.395,844.277 C660.758,806.961 677.864,750.982 672.772,726.107 L672.772,726.107 L672.772,726.107 z" fill="#010202"/>
    <path d="M608.862,500.765 C603.905,492.208 609.712,486.955 617.016,482.159 C625.547,479.72 633.477,475.102 644.975,483.588 L641.481,470.706 C651.862,467.651 661.258,462.792 677.594,470.706 L676.425,463.552 C690.119,446.261 700.713,447.949 711.379,449.242 L711.379,527.952 C698.649,549.463 667.806,522.023 640.313,503.622 C633.879,497.692 621.35,499.255 608.862,500.765 L608.862,500.765 L608.862,500.765 z" fill="#010202"/>
    <path d="M616.937,509.536 C625.663,526.57 632.352,537.512 662.365,535.295" fill="#010202"/>
    <path d="M634.649,694.208 C625.825,732.565 632.254,753.333 634.319,791.678 C603.583,774.574 591.15,741.949 583.227,699.943 L594.58,693.725 L607.702,719.058 L614.204,688.794 L643.145,679.094" fill="#FFFFFF"/>
    <path d="M632.262,929.062 C616.631,921.332 604.879,896.496 610.469,853.863 C618.82,873.095 630.603,899.597 653.55,905.742 L646.455,922.849 C641.489,924.882 630.361,926.091 625.163,899.525 C624.635,915.711 626.12,927.494 632.262,929.062 z" fill="#FFFFFF"/>
    <path d="M711.289,927.127 L711.289,935.916 C698.213,939.303 693.039,936.48 689.215,932.617 C679.579,932.574 669.235,935.213 662.116,925.471 C662.607,913.551 670.29,903.248 678.677,898.537 C679.776,907.959 683.615,917.31 688.718,919.428 C690.503,912.604 693.118,909.405 696.238,908.434 C698.477,916.684 701.178,924.615 711.289,927.127 L711.289,927.127 z" fill="#FFFFFF"/>
    <path d="M672.049,681.392 C669.215,692.289 665.76,697.084 666.43,707.982 C656.549,703.123 652.684,689.592 650.138,677.667 L656.676,675.754 L661.891,681.856 L664.483,674.362 L676.345,671.52" fill="#FFFFFF"/>
    <path d="M689.852,674.469 C687.858,680.927 685.428,683.767 685.891,690.224 C678.963,687.348 676.852,678.917 675.068,671.841 L680.106,671.119 L682.713,674.737 L684.526,670.287 L692.87,668.607" fill="#FFFFFF"/>
    <path d="M711.135,672.834 C705.633,674.887 701.446,680.487 701.916,686.947 C694.978,684.062 692.871,675.636 691.082,668.565 L696.121,667.839 L698.73,671.457 L700.548,667.011 L711.021,666.564" fill="#FFFFFF"/>
    <path d="M1071.256,538.529 C1064.32,525.273 933.762,513.797 931.91,525.175 L936.566,543.781 C989.865,535.065 1030.098,525.034 1071.256,538.529 L1071.256,538.529 z" fill="#010202"/>
    <path d="M1080.225,601.011 C1005.362,539.565 935.422,554.804 935.537,553.804 L934.375,578.126 C998.984,571.961 1023.555,581.805 1080.225,601.011 L1080.225,601.011 z" fill="#010202"/>
    <path d="M1044.438,662.143 C1039.18,638.446 965.286,579.458 933.655,587.433 L929.581,608.182 C994.447,616.338 988.498,615.622 1044.438,662.143 L1044.438,662.143 z" fill="#010202"/>
    <path d="M990.006,695.585 C981.852,655.513 925.496,618.203 925.496,618.203 L917.926,633.944 C953.449,648.51 959.949,655.872 990.006,695.583 L990.006,695.583 L990.006,695.585 z" fill="#010202"/>
    <path d="M1058.305,482.963 C987.248,467.215 921.934,500.469 921.934,500.469 L927.83,517.306 C969.09,494.86 1014.123,491.029 1058.305,482.963 L1058.305,482.963 z" fill="#010202"/>
    <path d="M543.54,392.862 L571.481,405.054 L585.129,430.049 L616.945,422.186 L653.119,429.815 L577.767,447.681 L543.54,392.862 L543.54,392.862 L543.54,392.862 z" fill="#F6A01E"/>
    <path d="M577.698,406.896 L588.212,422.232 L608.881,419.472 L577.698,406.896 L577.698,406.896 z" fill="#FFFFFF"/>
    <path d="M884.85,669.055 C907.01,630.916 946.832,569.228 905.983,506.535 C953.805,397.455 920.239,421.099 937.774,408.655 C972.118,401.681 1021.987,387.512 1006.102,286.516 C1004.309,275.101 937.282,333.421 899.748,321.397 C865.555,310.446 804.889,293.798 777.977,296.004 C759.645,297.496 765.854,304.784 759.495,306.749 C743.132,311.796 723.809,300.906 711.905,302.522 C710.135,302.355 712.307,1009.233 711.843,1008.536 C720.773,1005.981 725.599,1002.427 743.857,1003.151 C772.839,1004.294 825.55,962.456 836.992,936.809 C846.656,915.139 863.484,911.889 879.902,848.172 C855.939,825.422 883.556,681.41 892.693,661.223 L892.693,661.223 L892.693,661.223 L892.693,661.223 L884.85,669.055 z" fill="#010202"/>
    <path d="M877.496,392.862 L849.558,405.054 L835.91,430.049 L804.094,422.186 L767.916,429.815 L843.271,447.681 L877.496,392.862 L877.496,392.862 z" fill="#F6A01E"/>
    <path d="M843.342,406.896 L832.828,422.232 L812.158,419.472 L843.342,406.896 L843.342,406.896 z" fill="#FFFFFF"/>
    <path d="M813.445,501.81 C818.392,493.253 812.593,488.001 805.287,483.205 C796.76,480.766 788.82,476.148 777.334,484.634 L780.824,471.752 C770.445,468.697 761.049,463.838 744.713,471.752 L745.875,464.597 C732.187,447.306 721.586,448.994 710.932,450.288 L710.932,528.998 C723.659,550.509 754.493,523.069 781.987,504.669 C788.416,498.738 800.949,500.301 813.445,501.81 L813.445,501.81 L813.445,501.81 z" fill="#BC1818"/>
    <path d="M805.619,510.072 C796.89,527.104 790.203,538.054 760.183,535.833" fill="#BC1818"/>
    <path d="M789.963,929.652 C805.596,921.916 817.35,897.09 811.748,854.453 C803.394,873.685 791.613,900.187 768.67,906.332 L775.77,923.436 C780.729,925.471 791.866,926.672 797.057,900.116 C797.582,916.301 796.098,928.074 789.963,929.652 L789.963,929.652 L789.963,929.652 z" fill="#FFFFFF"/>
    <path d="M711.027,927.162 L711.027,935.951 C724.111,939.34 729.279,936.523 733.109,932.658 C742.748,932.611 753.091,935.248 760.197,925.512 C759.715,913.584 752.027,903.289 743.648,898.569 C742.55,907.993 738.71,917.354 733.609,919.464 C731.822,912.64 729.207,909.443 726.08,908.47 C723.838,916.73 721.146,924.654 711.027,927.162 L711.027,927.162 L711.027,927.162 z" fill="#FFFFFF"/>
    <path d="M749.465,726.09 C738.699,723.174 735.43,723.793 711.111,727.955 L711.142,886.234 C737.681,898.228 793.412,875.802 777.851,844.252 C761.477,806.939 744.373,750.965 749.465,726.09 L749.465,726.09 L749.465,726.09 z" fill="#BC1818"/>
    <path d="M787.57,694.797 C796.394,733.154 789.963,753.912 787.898,792.265 C818.632,775.161 831.076,742.538 838.99,700.532 L827.64,694.305 L814.515,719.647 L808.013,689.374 L779.079,679.684" fill="#FFFFFF"/>
    <path d="M749.662,681.336 C752.49,692.233 755.949,697.031 755.277,707.928 C765.156,703.069 769.025,689.536 771.562,677.605 L765.031,675.702 L759.816,681.803 L757.224,674.307 L745.363,671.469" fill="#FFFFFF"/>
    <path d="M710.57,672.779 C716.076,674.836 720.256,680.435 719.793,686.892 C726.731,684.006 728.832,675.585 730.619,668.51 L725.588,667.788 L722.979,671.406 L721.157,666.956 L710.69,666.509" fill="#FFFFFF"/>
    <path d="M731.857,674.405 C733.851,680.872 736.277,683.714 735.806,690.172 C742.747,687.296 744.851,678.861 746.642,671.79 L741.605,671.065 L738.996,674.682 L737.174,670.234 L728.838,668.557" fill="#FFFFFF"/>
    <path d="M910.359,560.959 L909.189,570.972 C889.386,571.928 869.582,572.884 849.781,573.84 C868.562,566.095 888.465,561.083 910.359,560.959 L910.359,560.959 z" fill="#BC1818"/>
    <path d="M903.367,599.598 L902.205,609.611 L859.096,593.873 L903.367,599.598 L903.367,599.598 L903.367,599.598 z" fill="#BC1818"/>
    <path d="M905.113,523.746 L908.607,538.055 C889.517,543.229 867.853,550.955 845.697,552.367 C864.822,548.802 882.895,534.939 905.113,523.746 L905.113,523.746 L905.113,523.746 z" fill="#BC1818"/>
    <path d="M837.383,638.812 C793.787,620.814 732.002,620.874 727.885,558.662 C707.59,592.773 707.527,620.027 837.383,638.812 z" fill="#BC1818"/>
    <path d="M31.753,10.039" fill="#BC1818"/>
    <path d="M31.753,10.039" fill="#BC1818"/>
    <path d="M31.753,10.039" fill="#BC1818"/>
    <text transform="matrix(1, 0, 0, 1, 715.863, 1083.266)">
      <tspan x="-402.5" y="37" font-family="DiavloBlack-Regular" font-size="149" fill="#FFFFFF">Bottwartal</tspan>
    </text>
    <text transform="matrix(1, 0, 0, 1, 379.722, 878.461)">
      <tspan x="-89" y="45.24" font-family="DiavloBlack-Regular" font-size="329.276" fill="#FFFFFF">S</tspan>
    </text>
    <text transform="matrix(1, 0, 0, 1, 1031.074, 877.825)">
      <tspan x="-119" y="45.24" font-family="DiavloBlack-Regular" font-size="329.276" fill="#FFFFFF">G</tspan>
    </text>
  </g>
  <defs/>
</svg>
